<?xml version="1.0" encoding="utf-8"?>
<!-- Generator: Adobe Illustrator 23.0.1, SVG Export Plug-In . SVG Version: 6.00 Build 0)  -->
<svg version="1.1" id="Layer_1" xmlns="http://www.w3.org/2000/svg" xmlns:xlink="http://www.w3.org/1999/xlink" x="0px" y="0px"
	 viewBox="0 0 512 512" style="enable-background:new 0 0 512 512;" xml:space="preserve">
<style type="text/css">
	.st0{fill:#FFFFFF;}
</style>
<path class="st0" d="M256.5,8c66.3,0.1,126.4,26.2,170.9,68.7L463,41c15.1-15.1,41-4.4,41,17V192c0,13.3-10.7,24-24,24H345.9
	c-21.4,0-32.1-25.9-17-41l41.8-41.8c-30.9-28.9-70.8-44.9-113.2-45.3C165.1,87.2,87.2,162,88,257.4C88.8,348,162.2,424,256,424
	c41.1,0,80-14.7,110.6-41.6c4.7-4.2,11.9-3.9,16.4,0.6l39.7,39.7c4.9,4.9,4.6,12.8-0.5,17.4C378.2,479.8,319.9,504,256,504
	C119,504,8,393,8,256C8,119.2,119.6,7.8,256.5,8z"/>
</svg>
